<svg xmlns="http://www.w3.org/2000/svg" width="170" height="240" viewBox="0 0 170 240">
<defs>
<linearGradient id="box" x1="0" y1="0" x2="0" y2="1"><stop offset="0" stop-color="#e9e1cf" stop-opacity="1"/><stop offset="1" stop-color="#d4c9b2" stop-opacity="1"/></linearGradient>
</defs>

<path d="M85 146 Q77 196 93 196" fill="none" stroke="#171226" stroke-opacity="0.7" stroke-width="2.5"/>
<ellipse cx="79" cy="72" rx="56" ry="64" fill="#6a5cff" opacity="0.45"/>
<ellipse cx="85" cy="78" rx="56" ry="64" fill="#ff5c4d"/>
<path d="M60 32 A 52 60 0 0 0 38 78 L 52 78 A 40 48 0 0 1 68 42 Z" fill="#ffffff" opacity="0.35"/>
<ellipse cx="85" cy="78" rx="56" ry="64" fill="none" stroke="#171226" stroke-opacity="0.75" stroke-width="3"/>
<path d="M78 138 L92 138 L85 150 Z" fill="#171226"/>
<rect x="69" y="196" width="48" height="36" rx="4" fill="url(#box)" stroke="#171226" stroke-opacity="0.8" stroke-width="3"/>
<line x1="81" y1="196" x2="81" y2="232" stroke="#171226" stroke-opacity="0.4" stroke-width="2.5"/>
<line x1="105" y1="196" x2="105" y2="232" stroke="#171226" stroke-opacity="0.4" stroke-width="2.5"/>
<circle cx="93" cy="214" r="4" fill="#ffb03a"/>

</svg>
